# xmcd
#
# Track frame offsets: 
#        150
#        17160
#        34767
#        54322
#        70062
#        86677
#        98057
#        116762
#        142465
#        159245
#        179925
#        200382
#        217022
#        233227
#        247322
#        260822
#
# Disc length: 3679 seconds
#
# Revision: 5
# Processed by: cddbd v1.5.1PL0 Copyright (c) Steve Scherf et al.
# Submitted via: ExactAudioCopy v0.95b2
#
DISCID=f70e5d10
DTITLE=Status Quo - The Best Of Status Quo 1972 - 1986
DYEAR=1986
DGENRE=Rock
TTITLE0=Caroline
TTITLE1=Night Ride
TTITLE2=Don't Waste My Time
TTITLE3=Like A Good Girl
TTITLE4=Again And Again
TTITLE5=Fine Fine Fine
TTITLE6=Accident Prone
TTITLE7=Roll Over Lay Down (Live)
TTITLE8=Down Down
TTITLE9=She Don't Fool Me
TTITLE10=Keep Me Guessing
TTITLE11=Oh! What A Night
TTITLE12=Just Take Me
TTITLE13=Let's Ride
TTITLE14=Late Last Night
TTITLE15=A Mess Of Blues
EXTD=
EXTT0=
EXTT1=
EXTT2=
EXTT3=
EXTT4=
EXTT5=
EXTT6=
EXTT7=
EXTT8=
EXTT9=
EXTT10=
EXTT11=
EXTT12=
EXTT13=
EXTT14=
EXTT15=
PLAYORDER=
